<svg id="visual" viewBox="0 0 900 600" width="900" height="600" xmlns="http://www.w3.org/2000/svg" xmlns:xlink="http://www.w3.org/1999/xlink" version="1.1"><rect x="0" y="0" width="900" height="600" fill="#ffffff"></rect><defs><linearGradient id="grad1_0" x1="33.3%" y1="100%" x2="100%" y2="0%"><stop offset="20%" stop-color="#009ae8" stop-opacity="1"></stop><stop offset="80%" stop-color="#009ae8" stop-opacity="1"></stop></linearGradient></defs><defs><linearGradient id="grad1_1" x1="33.3%" y1="100%" x2="100%" y2="0%"><stop offset="20%" stop-color="#009ae8" stop-opacity="1"></stop><stop offset="80%" stop-color="#70b2ee" stop-opacity="1"></stop></linearGradient></defs><defs><linearGradient id="grad1_2" x1="33.3%" y1="100%" x2="100%" y2="0%"><stop offset="20%" stop-color="#a6cbf4" stop-opacity="1"></stop><stop offset="80%" stop-color="#70b2ee" stop-opacity="1"></stop></linearGradient></defs><defs><linearGradient id="grad1_3" x1="33.3%" y1="100%" x2="100%" y2="0%"><stop offset="20%" stop-color="#a6cbf4" stop-opacity="1"></stop><stop offset="80%" stop-color="#d4e5fa" stop-opacity="1"></stop></linearGradient></defs><defs><linearGradient id="grad1_4" x1="33.3%" y1="100%" x2="100%" y2="0%"><stop offset="20%" stop-color="#ffffff" stop-opacity="1"></stop><stop offset="80%" stop-color="#d4e5fa" stop-opacity="1"></stop></linearGradient></defs><defs><linearGradient id="grad2_0" x1="0%" y1="100%" x2="66.7%" y2="0%"><stop offset="20%" stop-color="#009ae8" stop-opacity="1"></stop><stop offset="80%" stop-color="#009ae8" stop-opacity="1"></stop></linearGradient></defs><defs><linearGradient id="grad2_1" x1="0%" y1="100%" x2="66.7%" y2="0%"><stop offset="20%" stop-color="#70b2ee" stop-opacity="1"></stop><stop offset="80%" stop-color="#009ae8" stop-opacity="1"></stop></linearGradient></defs><defs><linearGradient id="grad2_2" x1="0%" y1="100%" x2="66.7%" y2="0%"><stop offset="20%" stop-color="#70b2ee" stop-opacity="1"></stop><stop offset="80%" stop-color="#a6cbf4" stop-opacity="1"></stop></linearGradient></defs><defs><linearGradient id="grad2_3" x1="0%" y1="100%" x2="66.7%" y2="0%"><stop offset="20%" stop-color="#d4e5fa" stop-opacity="1"></stop><stop offset="80%" stop-color="#a6cbf4" stop-opacity="1"></stop></linearGradient></defs><defs><linearGradient id="grad2_4" x1="0%" y1="100%" x2="66.7%" y2="0%"><stop offset="20%" stop-color="#d4e5fa" stop-opacity="1"></stop><stop offset="80%" stop-color="#ffffff" stop-opacity="1"></stop></linearGradient></defs><g transform="translate(900, 600)"><path d="M-486.7 0C-451.5 -71.7 -416.3 -143.4 -380.2 -219.5C-344 -295.6 -306.9 -376.3 -243.4 -421.5C-179.9 -466.8 -89.9 -476.8 0 -486.7L0 0Z" fill="#eaf2fc"></path><path d="M-389.4 0C-361.2 -57.3 -333.1 -114.7 -304.1 -175.6C-275.2 -236.5 -245.5 -301 -194.7 -337.2C-143.9 -373.5 -71.9 -381.4 0 -389.4L0 0Z" fill="#bdd8f7"></path><path d="M-292 0C-270.9 -43 -249.8 -86 -228.1 -131.7C-206.4 -177.4 -184.1 -225.8 -146 -252.9C-107.9 -280.1 -54 -286.1 0 -292L0 0Z" fill="#8dbef1"></path><path d="M-194.7 0C-180.6 -28.7 -166.5 -57.3 -152.1 -87.8C-137.6 -118.3 -122.8 -150.5 -97.3 -168.6C-71.9 -186.7 -36 -190.7 0 -194.7L0 0Z" fill="#4ea6eb"></path><path d="M-97.3 0C-90.3 -14.3 -83.3 -28.7 -76 -43.9C-68.8 -59.1 -61.4 -75.3 -48.7 -84.3C-36 -93.4 -18 -95.4 0 -97.3L0 0Z" fill="#009ae8"></path></g><g transform="translate(0, 0)"><path d="M486.7 0C477.5 91.1 468.2 182.2 421.5 243.4C374.9 304.6 291 335.9 214.5 371.5C138 407.1 69 446.9 0 486.7L0 0Z" fill="#eaf2fc"></path><path d="M389.4 0C382 72.9 374.5 145.7 337.2 194.7C299.9 243.7 232.8 268.8 171.6 297.2C110.4 325.7 55.2 357.5 0 389.4L0 0Z" fill="#bdd8f7"></path><path d="M292 0C286.5 54.6 280.9 109.3 252.9 146C225 182.8 174.6 201.6 128.7 222.9C82.8 244.3 41.4 268.2 0 292L0 0Z" fill="#8dbef1"></path><path d="M194.7 0C191 36.4 187.3 72.9 168.6 97.3C150 121.8 116.4 134.4 85.8 148.6C55.2 162.8 27.6 178.8 0 194.7L0 0Z" fill="#4ea6eb"></path><path d="M97.3 0C95.5 18.2 93.6 36.4 84.3 48.7C75 60.9 58.2 67.2 42.9 74.3C27.6 81.4 13.8 89.4 0 97.3L0 0Z" fill="#009ae8"></path></g></svg>