<svg id="visual" viewBox="0 0 900 600" width="900" height="600" xmlns="http://www.w3.org/2000/svg" xmlns:xlink="http://www.w3.org/1999/xlink" version="1.1"><rect x="0" y="0" width="900" height="600" fill="#FFFFFF"></rect><path d="M0 375L21.5 386.7C43 398.3 86 421.7 128.8 420.5C171.7 419.3 214.3 393.7 257.2 391.2C300 388.7 343 409.3 385.8 432.7C428.7 456 471.3 482 514.2 479.8C557 477.7 600 447.3 642.8 437.7C685.7 428 728.3 439 771.2 434.2C814 429.3 857 408.7 878.5 398.3L900 388L900 0L878.5 0C857 0 814 0 771.2 0C728.3 0 685.7 0 642.8 0C600 0 557 0 514.2 0C471.3 0 428.7 0 385.8 0C343 0 300 0 257.2 0C214.3 0 171.7 0 128.8 0C86 0 43 0 21.5 0L0 0Z" fill="#f74f4f"></path><path d="M0 440L21.5 433.5C43 427 86 414 128.8 401C171.7 388 214.3 375 257.2 374.7C300 374.3 343 386.7 385.8 396.7C428.7 406.7 471.3 414.3 514.2 418.7C557 423 600 424 642.8 426.3C685.7 428.7 728.3 432.3 771.2 426.5C814 420.7 857 405.3 878.5 397.7L900 390L900 0L878.5 0C857 0 814 0 771.2 0C728.3 0 685.7 0 642.8 0C600 0 557 0 514.2 0C471.3 0 428.7 0 385.8 0C343 0 300 0 257.2 0C214.3 0 171.7 0 128.8 0C86 0 43 0 21.5 0L0 0Z" fill="#f65e5a"></path><path d="M0 406L21.5 400.7C43 395.3 86 384.7 128.8 388.8C171.7 393 214.3 412 257.2 397.5C300 383 343 335 385.8 322.8C428.7 310.7 471.3 334.3 514.2 334.2C557 334 600 310 642.8 317.8C685.7 325.7 728.3 365.3 771.2 382.2C814 399 857 393 878.5 390L900 387L900 0L878.5 0C857 0 814 0 771.2 0C728.3 0 685.7 0 642.8 0C600 0 557 0 514.2 0C471.3 0 428.7 0 385.8 0C343 0 300 0 257.2 0C214.3 0 171.7 0 128.8 0C86 0 43 0 21.5 0L0 0Z" fill="#f46b64"></path><path d="M0 382L21.5 367.3C43 352.7 86 323.3 128.8 304C171.7 284.7 214.3 275.3 257.2 270.2C300 265 343 264 385.8 267.7C428.7 271.3 471.3 279.7 514.2 283.7C557 287.7 600 287.3 642.8 304.3C685.7 321.3 728.3 355.7 771.2 358.8C814 362 857 334 878.5 320L900 306L900 0L878.5 0C857 0 814 0 771.2 0C728.3 0 685.7 0 642.8 0C600 0 557 0 514.2 0C471.3 0 428.7 0 385.8 0C343 0 300 0 257.2 0C214.3 0 171.7 0 128.8 0C86 0 43 0 21.5 0L0 0Z" fill="#f2786f"></path><path d="M0 269L21.5 266C43 263 86 257 128.8 266.3C171.7 275.7 214.3 300.3 257.2 307.7C300 315 343 305 385.8 295.5C428.7 286 471.3 277 514.2 283.7C557 290.3 600 312.7 642.8 313.2C685.7 313.7 728.3 292.3 771.2 288.5C814 284.7 857 298.3 878.5 305.2L900 312L900 0L878.5 0C857 0 814 0 771.2 0C728.3 0 685.7 0 642.8 0C600 0 557 0 514.2 0C471.3 0 428.7 0 385.8 0C343 0 300 0 257.2 0C214.3 0 171.7 0 128.8 0C86 0 43 0 21.5 0L0 0Z" fill="#f0837a"></path><path d="M0 238L21.5 237.2C43 236.3 86 234.7 128.8 232.8C171.7 231 214.3 229 257.2 233.2C300 237.3 343 247.7 385.8 252.2C428.7 256.7 471.3 255.3 514.2 257.3C557 259.3 600 264.7 642.8 272.7C685.7 280.7 728.3 291.3 771.2 283.2C814 275 857 248 878.5 234.5L900 221L900 0L878.5 0C857 0 814 0 771.2 0C728.3 0 685.7 0 642.8 0C600 0 557 0 514.2 0C471.3 0 428.7 0 385.8 0C343 0 300 0 257.2 0C214.3 0 171.7 0 128.8 0C86 0 43 0 21.5 0L0 0Z" fill="#ed8f85"></path><path d="M0 235L21.5 227C43 219 86 203 128.8 196.5C171.7 190 214.3 193 257.2 194.2C300 195.3 343 194.7 385.8 198.3C428.7 202 471.3 210 514.2 206.3C557 202.7 600 187.3 642.8 182C685.7 176.7 728.3 181.3 771.2 180.8C814 180.3 857 174.7 878.5 171.8L900 169L900 0L878.5 0C857 0 814 0 771.2 0C728.3 0 685.7 0 642.8 0C600 0 557 0 514.2 0C471.3 0 428.7 0 385.8 0C343 0 300 0 257.2 0C214.3 0 171.7 0 128.8 0C86 0 43 0 21.5 0L0 0Z" fill="#e99991"></path><path d="M0 224L21.5 224.3C43 224.7 86 225.3 128.8 215.8C171.7 206.3 214.3 186.7 257.2 177.3C300 168 343 169 385.8 166.7C428.7 164.3 471.3 158.7 514.2 160.3C557 162 600 171 642.8 183.8C685.7 196.7 728.3 213.3 771.2 211C814 208.7 857 187.3 878.5 176.7L900 166L900 0L878.5 0C857 0 814 0 771.2 0C728.3 0 685.7 0 642.8 0C600 0 557 0 514.2 0C471.3 0 428.7 0 385.8 0C343 0 300 0 257.2 0C214.3 0 171.7 0 128.8 0C86 0 43 0 21.5 0L0 0Z" fill="#e5a49c"></path><path d="M0 188L21.5 184.3C43 180.7 86 173.3 128.8 160.5C171.7 147.7 214.3 129.3 257.2 128.7C300 128 343 145 385.8 145.5C428.7 146 471.3 130 514.2 126C557 122 600 130 642.8 137.3C685.7 144.7 728.3 151.3 771.2 159.5C814 167.7 857 177.3 878.5 182.2L900 187L900 0L878.5 0C857 0 814 0 771.2 0C728.3 0 685.7 0 642.8 0C600 0 557 0 514.2 0C471.3 0 428.7 0 385.8 0C343 0 300 0 257.2 0C214.3 0 171.7 0 128.8 0C86 0 43 0 21.5 0L0 0Z" fill="#e0aea8"></path><path d="M0 105L21.5 103C43 101 86 97 128.8 95.5C171.7 94 214.3 95 257.2 95.7C300 96.3 343 96.7 385.8 97.3C428.7 98 471.3 99 514.2 96.8C557 94.7 600 89.3 642.8 86.7C685.7 84 728.3 84 771.2 93.3C814 102.7 857 121.3 878.5 130.7L900 140L900 0L878.5 0C857 0 814 0 771.2 0C728.3 0 685.7 0 642.8 0C600 0 557 0 514.2 0C471.3 0 428.7 0 385.8 0C343 0 300 0 257.2 0C214.3 0 171.7 0 128.8 0C86 0 43 0 21.5 0L0 0Z" fill="#dab8b4"></path><path d="M0 51L21.5 56.7C43 62.3 86 73.7 128.8 77.3C171.7 81 214.3 77 257.2 77.8C300 78.7 343 84.3 385.8 89C428.7 93.7 471.3 97.3 514.2 96.5C557 95.7 600 90.3 642.8 83.7C685.7 77 728.3 69 771.2 65.5C814 62 857 63 878.5 63.5L900 64L900 0L878.5 0C857 0 814 0 771.2 0C728.3 0 685.7 0 642.8 0C600 0 557 0 514.2 0C471.3 0 428.7 0 385.8 0C343 0 300 0 257.2 0C214.3 0 171.7 0 128.8 0C86 0 43 0 21.5 0L0 0Z" fill="#d4c2c0"></path><path d="M0 65L21.5 64.5C43 64 86 63 128.8 56C171.7 49 214.3 36 257.2 30.3C300 24.7 343 26.3 385.8 30.7C428.7 35 471.3 42 514.2 46.3C557 50.7 600 52.3 642.8 49.3C685.7 46.3 728.3 38.7 771.2 38.8C814 39 857 47 878.5 51L900 55L900 0L878.5 0C857 0 814 0 771.2 0C728.3 0 685.7 0 642.8 0C600 0 557 0 514.2 0C471.3 0 428.7 0 385.8 0C343 0 300 0 257.2 0C214.3 0 171.7 0 128.8 0C86 0 43 0 21.5 0L0 0Z" fill="#cccccc"></path></svg>