<svg id="visual" viewBox="0 0 900 600" width="900" height="600" xmlns="http://www.w3.org/2000/svg" xmlns:xlink="http://www.w3.org/1999/xlink" version="1.1"><rect x="0" y="0" width="900" height="600" fill="#ffffff"></rect><defs><linearGradient id="grad1_0" x1="33.3%" y1="0%" x2="100%" y2="100%"><stop offset="20%" stop-color="#ff3b88" stop-opacity="1"></stop><stop offset="80%" stop-color="#ff3b88" stop-opacity="1"></stop></linearGradient></defs><defs><linearGradient id="grad1_1" x1="33.3%" y1="0%" x2="100%" y2="100%"><stop offset="20%" stop-color="#ff3b88" stop-opacity="1"></stop><stop offset="80%" stop-color="#ff679b" stop-opacity="1"></stop></linearGradient></defs><defs><linearGradient id="grad1_2" x1="33.3%" y1="0%" x2="100%" y2="100%"><stop offset="20%" stop-color="#ff8aae" stop-opacity="1"></stop><stop offset="80%" stop-color="#ff679b" stop-opacity="1"></stop></linearGradient></defs><defs><linearGradient id="grad1_3" x1="33.3%" y1="0%" x2="100%" y2="100%"><stop offset="20%" stop-color="#ff8aae" stop-opacity="1"></stop><stop offset="80%" stop-color="#ffa9c2" stop-opacity="1"></stop></linearGradient></defs><defs><linearGradient id="grad1_4" x1="33.3%" y1="0%" x2="100%" y2="100%"><stop offset="20%" stop-color="#ffc6d6" stop-opacity="1"></stop><stop offset="80%" stop-color="#ffa9c2" stop-opacity="1"></stop></linearGradient></defs><defs><linearGradient id="grad1_5" x1="33.3%" y1="0%" x2="100%" y2="100%"><stop offset="20%" stop-color="#ffc6d6" stop-opacity="1"></stop><stop offset="80%" stop-color="#ffe3ea" stop-opacity="1"></stop></linearGradient></defs><defs><linearGradient id="grad1_6" x1="33.3%" y1="0%" x2="100%" y2="100%"><stop offset="20%" stop-color="#ffffff" stop-opacity="1"></stop><stop offset="80%" stop-color="#ffe3ea" stop-opacity="1"></stop></linearGradient></defs><defs><linearGradient id="grad2_0" x1="0%" y1="0%" x2="66.7%" y2="100%"><stop offset="20%" stop-color="#ff3b88" stop-opacity="1"></stop><stop offset="80%" stop-color="#ff3b88" stop-opacity="1"></stop></linearGradient></defs><defs><linearGradient id="grad2_1" x1="0%" y1="0%" x2="66.7%" y2="100%"><stop offset="20%" stop-color="#ff679b" stop-opacity="1"></stop><stop offset="80%" stop-color="#ff3b88" stop-opacity="1"></stop></linearGradient></defs><defs><linearGradient id="grad2_2" x1="0%" y1="0%" x2="66.7%" y2="100%"><stop offset="20%" stop-color="#ff679b" stop-opacity="1"></stop><stop offset="80%" stop-color="#ff8aae" stop-opacity="1"></stop></linearGradient></defs><defs><linearGradient id="grad2_3" x1="0%" y1="0%" x2="66.7%" y2="100%"><stop offset="20%" stop-color="#ffa9c2" stop-opacity="1"></stop><stop offset="80%" stop-color="#ff8aae" stop-opacity="1"></stop></linearGradient></defs><defs><linearGradient id="grad2_4" x1="0%" y1="0%" x2="66.7%" y2="100%"><stop offset="20%" stop-color="#ffa9c2" stop-opacity="1"></stop><stop offset="80%" stop-color="#ffc6d6" stop-opacity="1"></stop></linearGradient></defs><defs><linearGradient id="grad2_5" x1="0%" y1="0%" x2="66.7%" y2="100%"><stop offset="20%" stop-color="#ffe3ea" stop-opacity="1"></stop><stop offset="80%" stop-color="#ffc6d6" stop-opacity="1"></stop></linearGradient></defs><defs><linearGradient id="grad2_6" x1="0%" y1="0%" x2="66.7%" y2="100%"><stop offset="20%" stop-color="#ffe3ea" stop-opacity="1"></stop><stop offset="80%" stop-color="#ffffff" stop-opacity="1"></stop></linearGradient></defs><g transform="translate(900, 0)"><path d="M0 432.7C-56.3 426.4 -112.6 420.1 -165.6 399.7C-218.6 379.4 -268.3 344.9 -301.2 301.2C-334.2 257.6 -350.4 204.8 -369.6 153.1C-388.7 101.3 -410.7 50.7 -432.7 0L0 0Z" fill="#fff1f5"></path><path d="M0 370.9C-48.2 365.5 -96.5 360.1 -141.9 342.6C-187.3 325.2 -229.9 295.6 -258.2 258.2C-286.5 220.8 -300.4 175.5 -316.8 131.2C-333.1 86.9 -352 43.4 -370.9 0L0 0Z" fill="#ffd4e0"></path><path d="M0 309C-40.2 304.6 -80.4 300.1 -118.3 285.5C-156.1 271 -191.6 246.3 -215.2 215.2C-238.7 184 -250.3 146.3 -264 109.3C-277.6 72.4 -293.3 36.2 -309 0L0 0Z" fill="#ffb7cc"></path><path d="M0 247.2C-32.2 243.7 -64.3 240.1 -94.6 228.4C-124.9 216.8 -153.3 197.1 -172.1 172.1C-191 147.2 -200.2 117 -211.2 87.5C-222.1 57.9 -234.7 29 -247.2 0L0 0Z" fill="#ff99b8"></path><path d="M0 185.4C-24.1 182.7 -48.2 180 -71 171.3C-93.7 162.6 -115 147.8 -129.1 129.1C-143.2 110.4 -150.2 87.8 -158.4 65.6C-166.6 43.4 -176 21.7 -185.4 0L0 0Z" fill="#ff79a4"></path><path d="M0 123.6C-16.1 121.8 -32.2 120 -47.3 114.2C-62.4 108.4 -76.6 98.5 -86.1 86.1C-95.5 73.6 -100.1 58.5 -105.6 43.7C-111 29 -117.3 14.5 -123.6 0L0 0Z" fill="#ff5391"></path><path d="M0 61.8C-8 60.9 -16.1 60 -23.7 57.1C-31.2 54.2 -38.3 49.3 -43 43C-47.7 36.8 -50.1 29.3 -52.8 21.9C-55.5 14.5 -58.7 7.2 -61.8 0L0 0Z" fill="#ff3b88"></path></g><g transform="translate(0, 600)"><path d="M0 -432.7C40.7 -388.5 81.5 -344.4 136.6 -329.8C191.8 -315.3 261.3 -330.3 305.9 -305.9C350.5 -281.6 370.1 -217.9 387.1 -160.3C404.1 -102.8 418.4 -51.4 432.7 0L0 0Z" fill="#fff1f5"></path><path d="M0 -370.9C34.9 -333 69.8 -295.2 117.1 -282.7C164.4 -270.2 224 -283.1 262.2 -262.2C300.5 -241.4 317.3 -186.8 331.8 -137.4C346.3 -88.1 358.6 -44.1 370.9 0L0 0Z" fill="#ffd4e0"></path><path d="M0 -309C29.1 -277.5 58.2 -246 97.6 -235.6C137 -225.2 186.7 -235.9 218.5 -218.5C250.4 -201.1 264.4 -155.6 276.5 -114.5C288.6 -73.4 298.8 -36.7 309 0L0 0Z" fill="#ffb7cc"></path><path d="M0 -247.2C23.3 -222 46.6 -196.8 78.1 -188.5C109.6 -180.2 149.3 -188.7 174.8 -174.8C200.3 -160.9 211.5 -124.5 221.2 -91.6C230.9 -58.7 239.1 -29.4 247.2 0L0 0Z" fill="#ff99b8"></path><path d="M0 -185.4C17.5 -166.5 34.9 -147.6 58.6 -141.4C82.2 -135.1 112 -141.6 131.1 -131.1C150.2 -120.7 158.6 -93.4 165.9 -68.7C173.2 -44.1 179.3 -22 185.4 0L0 0Z" fill="#ff79a4"></path><path d="M0 -123.6C11.6 -111 23.3 -98.4 39 -94.2C54.8 -90.1 74.7 -94.4 87.4 -87.4C100.2 -80.5 105.8 -62.3 110.6 -45.8C115.4 -29.4 119.5 -14.7 123.6 0L0 0Z" fill="#ff5391"></path><path d="M0 -61.8C5.8 -55.5 11.6 -49.2 19.5 -47.1C27.4 -45 37.3 -47.2 43.7 -43.7C50.1 -40.2 52.9 -31.1 55.3 -22.9C57.7 -14.7 59.8 -7.3 61.8 0L0 0Z" fill="#ff3b88"></path></g></svg>